<?xml version="1.0" encoding="utf-8"?>
<!-- Generator: Adobe Illustrator 22.0.1, SVG Export Plug-In . SVG Version: 6.00 Build 0)  -->
<svg version="1.0" id="Layer_1" xmlns="http://www.w3.org/2000/svg" xmlns:xlink="http://www.w3.org/1999/xlink" x="0px" y="0px"
	 viewBox="0 0 262 262" style="enable-background:new 0 0 262 262;" xml:space="preserve">
<style type="text/css">
	.st0{fill:#FFFFFF;}
	.st1{fill:none;stroke:#000000;stroke-width:3;stroke-miterlimit:10;}
	.st2{stroke:#000000;stroke-width:3;stroke-miterlimit:10;}
	.st3{fill:none;stroke:#000000;stroke-width:3;stroke-linecap:round;stroke-miterlimit:10;}
	.st4{fill:none;stroke:#000000;stroke-width:2;stroke-miterlimit:10;}
</style>
<path id="gear_circle" d="M262,134.3c0-1.1,0-2.2,0-3.3s0-2.2,0-3.3l-4.5-0.2c-0.1-2.1-0.2-4.1-0.3-6.2l4.5-0.7
	c-0.2-2.2-0.4-4.4-0.7-6.6l-4.5,0.2c-0.3-2.1-0.6-4.1-1-6.1l4.4-1.2c-0.4-2.2-0.9-4.3-1.4-6.4l-4.5,0.7c-0.5-2-1-4-1.6-6l4.2-1.6
	c-0.6-2.1-1.3-4.2-2-6.3l-4.4,1.2c-0.7-1.9-1.4-3.9-2.2-5.8l4-2c-0.8-2-1.7-4-2.7-6l-4.2,1.6c-0.9-1.9-1.8-3.7-2.8-5.5l3.8-2.5
	c-1.1-1.9-2.2-3.8-3.3-5.7l-4,2.1c-1.1-1.8-2.2-3.5-3.4-5.2l3.5-2.8c-1.2-1.8-2.5-3.6-3.9-5.3l-3.8,2.5c-1.3-1.6-2.6-3.2-3.9-4.8
	l3.2-3.2c-1.4-1.7-2.9-3.3-4.4-4.9l-3.5,2.8c-1.4-1.5-2.9-3-4.4-4.4l2.8-3.5c-1.6-1.5-3.2-3-4.9-4.4l-3.2,3.2
	c-1.6-1.3-3.2-2.6-4.8-3.9l2.5-3.8c-1.7-1.3-3.5-2.6-5.3-3.9l-2.8,3.5c-1.7-1.2-3.4-2.3-5.2-3.4l2.1-4c-1.9-1.1-3.8-2.2-5.7-3.3
	l-2.5,3.8c-1.8-1-3.6-1.9-5.5-2.8l1.6-4.2c-2-0.9-4-1.8-6-2.7l-2,4c-1.9-0.8-3.8-1.5-5.8-2.2l1.2-4.4c-2.1-0.7-4.2-1.4-6.3-2
	l-1.6,4.2c-2-0.6-4-1.1-6-1.6l0.7-4.5c-2.1-0.5-4.3-1-6.4-1.4l-1.2,4.4c-2-0.4-4.1-0.7-6.1-1l0.2-4.5c-2.2-0.3-4.4-0.5-6.6-0.7
	l-0.7,4.5c-2-0.2-4.1-0.3-6.2-0.3L134.3,0c-1.1,0-2.2,0-3.3,0c-1.1,0-2.2,0-3.3,0l-0.2,4.5c-2.1,0.1-4.1,0.2-6.2,0.3l-0.7-4.5
	c-2.2,0.2-4.4,0.4-6.6,0.7l0.2,4.5c-2.1,0.3-4.1,0.6-6.1,1L107,2.2c-2.2,0.4-4.3,0.9-6.4,1.4l0.7,4.5c-2,0.5-4,1-6,1.6l-1.6-4.2
	c-2.1,0.6-4.2,1.3-6.3,2l1.2,4.4c-1.9,0.7-3.9,1.4-5.8,2.2l-2-4c-2,0.8-4,1.7-6,2.7l1.6,4.2c-1.9,0.9-3.7,1.8-5.5,2.8l-2.5-3.8
	c-1.9,1.1-3.8,2.2-5.7,3.3l2.1,4c-1.8,1.1-3.5,2.2-5.2,3.4l-2.8-3.5c-1.8,1.2-3.6,2.5-5.3,3.9l2.5,3.8c-1.6,1.3-3.2,2.6-4.8,3.9
	l-3.2-3.2c-1.7,1.4-3.3,2.9-4.9,4.4l2.8,3.5c-1.5,1.4-3,2.9-4.4,4.4l-3.5-2.8c-1.5,1.6-3,3.2-4.4,4.9l3.2,3.2
	c-1.3,1.6-2.6,3.2-3.9,4.8L27,51.4c-1.3,1.7-2.6,3.5-3.9,5.3l3.5,2.8c-1.2,1.7-2.3,3.4-3.4,5.2l-4-2.1c-1.1,1.9-2.2,3.8-3.3,5.7
	l3.8,2.5c-1,1.8-1.9,3.6-2.8,5.5l-4.2-1.6c-0.9,2-1.8,4-2.7,6l4,2c-0.8,1.9-1.5,3.8-2.2,5.8l-4.4-1.2c-0.7,2.1-1.4,4.2-2,6.3
	l4.2,1.6c-0.6,2-1.1,4-1.6,6l-4.5-0.7c-0.5,2.1-1,4.3-1.4,6.4l4.4,1.2c-0.4,2-0.7,4.1-1,6.1L1.1,114c-0.3,2.2-0.5,4.4-0.7,6.6
	l4.5,0.7c-0.2,2-0.3,4.1-0.3,6.2L0,127.7c0,1.1,0,2.2,0,3.3c0,1.1,0,2.2,0,3.3l4.5,0.2c0.1,2.1,0.2,4.1,0.3,6.2l-4.5,0.7
	c0.2,2.2,0.4,4.4,0.7,6.6l4.5-0.2c0.3,2.1,0.6,4.1,1,6.1L2.2,155c0.4,2.2,0.9,4.3,1.4,6.4l4.5-0.7c0.5,2,1,4,1.6,6l-4.2,1.6
	c0.6,2.1,1.3,4.2,2,6.3l4.4-1.2c0.7,1.9,1.4,3.9,2.2,5.8l-4,2c0.8,2,1.7,4,2.7,6l4.2-1.6c0.9,1.9,1.8,3.7,2.8,5.5l-3.8,2.5
	c1.1,1.9,2.2,3.8,3.3,5.7l4-2.1c1.1,1.8,2.2,3.5,3.4,5.2l-3.5,2.8c1.2,1.8,2.5,3.6,3.9,5.3l3.8-2.5c1.3,1.6,2.6,3.2,3.9,4.8
	l-3.2,3.2c1.4,1.7,2.9,3.3,4.4,4.9l3.5-2.8c1.4,1.5,2.9,3,4.4,4.4l-2.8,3.5c1.6,1.5,3.2,3,4.9,4.4l3.2-3.2c1.6,1.3,3.2,2.6,4.8,3.9
	l-2.5,3.8c1.7,1.3,3.5,2.6,5.3,3.9l2.8-3.5c1.7,1.2,3.4,2.3,5.2,3.4l-2.1,4c1.9,1.1,3.8,2.2,5.7,3.3l2.5-3.8c1.8,1,3.6,1.9,5.5,2.8
	l-1.6,4.2c2,0.9,4,1.8,6,2.7l2-4c1.9,0.8,3.8,1.5,5.8,2.2l-1.2,4.4c2.1,0.7,4.2,1.4,6.3,2l1.6-4.2c2,0.6,4,1.1,6,1.6l-0.7,4.5
	c2.1,0.5,4.3,1,6.4,1.4l1.2-4.4c2,0.4,4.1,0.7,6.1,1l-0.2,4.5c2.2,0.3,4.4,0.5,6.6,0.7l0.7-4.5c2,0.2,4.1,0.3,6.2,0.3l0.2,4.5
	c1.1,0,2.2,0,3.3,0c1.1,0,2.2,0,3.3,0l0.2-4.5c2.1-0.1,4.1-0.2,6.2-0.3l0.7,4.5c2.2-0.2,4.4-0.4,6.6-0.7l-0.2-4.5
	c2.1-0.3,4.1-0.6,6.1-1l1.2,4.4c2.2-0.4,4.3-0.9,6.4-1.4l-0.7-4.5c2-0.5,4-1,6-1.6l1.6,4.2c2.1-0.6,4.2-1.3,6.3-2l-1.2-4.4
	c1.9-0.7,3.9-1.4,5.8-2.2l2,4c2-0.8,4-1.7,6-2.7l-1.6-4.2c1.9-0.9,3.7-1.8,5.5-2.8l2.5,3.8c1.9-1.1,3.8-2.2,5.7-3.3l-2.1-4
	c1.8-1.1,3.5-2.2,5.2-3.4l2.8,3.5c1.8-1.2,3.6-2.5,5.3-3.9l-2.5-3.8c1.6-1.3,3.2-2.6,4.8-3.9l3.2,3.2c1.7-1.4,3.3-2.9,4.9-4.4
	l-2.8-3.5c1.5-1.4,3-2.9,4.4-4.4l3.5,2.8c1.5-1.6,3-3.2,4.4-4.9l-3.2-3.2c1.3-1.6,2.6-3.2,3.9-4.8l3.8,2.5c1.3-1.7,2.6-3.5,3.9-5.3
	l-3.5-2.8c1.2-1.7,2.3-3.4,3.4-5.2l4,2.1c1.1-1.9,2.2-3.8,3.3-5.7l-3.8-2.5c1-1.8,1.9-3.6,2.8-5.5l4.2,1.6c0.9-2,1.8-4,2.7-6l-4-2
	c0.8-1.9,1.5-3.8,2.2-5.8l4.4,1.2c0.7-2.1,1.4-4.2,2-6.3l-4.2-1.6c0.6-2,1.1-4,1.6-6l4.5,0.7c0.5-2.1,1-4.3,1.4-6.4l-4.4-1.2
	c0.4-2,0.7-4.1,1-6.1l4.5,0.2c0.3-2.2,0.5-4.4,0.7-6.6l-4.5-0.7c0.2-2,0.3-4.1,0.3-6.2L262,134.3z M131,249
	c-65.2,0-118-52.8-118-118S65.8,13,131,13s118,52.8,118,118S196.2,249,131,249z"/>
<g id="top_stars">
	<polygon points="103,29.8 105,33.9 109.5,34.5 106.2,37.7 107,42.2 103,40.1 99,42.2 99.8,37.7 96.5,34.5 101,33.9 	"/>
	<polygon points="159,29.8 161,33.9 165.5,34.5 162.3,37.7 163,42.2 159,40.1 155,42.2 155.8,37.7 152.5,34.5 157,33.9 	"/>
	<polygon points="131,24.8 133,28.9 137.5,29.5 134.3,32.7 135,37.2 131,35.1 127,37.2 127.8,32.7 124.5,29.5 129,28.9 	"/>
	<polygon points="76,41.8 78,45.9 82.5,46.5 79.3,49.7 80,54.2 76,52.1 72,54.2 72.8,49.7 69.5,46.5 74,45.9 	"/>
	<polygon points="186,41.8 188,45.9 192.5,46.5 189.3,49.7 190,54.2 186,52.1 182,54.2 182.8,49.7 179.5,46.5 184,45.9 	"/>
	<polygon points="206,60.8 208,64.9 212.5,65.5 209.3,68.7 210,73.2 206,71.1 202,73.2 202.8,68.7 199.5,65.5 204,64.9 	"/>
	<polygon points="56,60.8 58,64.9 62.5,65.5 59.3,68.7 60,73.2 56,71.1 52,73.2 52.8,68.7 49.5,65.5 54,64.9 	"/>
</g>
<g id="FULL_BRAVO">
	<path d="M131,18.5C68.9,18.5,18.5,68.9,18.5,131S68.9,243.5,131,243.5S243.5,193.1,243.5,131S193.1,18.5,131,18.5z M131,24
		c51.4,0,94.3,36.2,104.6,84.5H26.4C36.7,60.2,79.6,24,131,24z M131,238c-51.4,0-94.3-36.2-104.6-84.5h209.2
		C225.3,201.8,182.4,238,131,238z"/>
	<g>
		<path class="st0" d="M33.1,145.4v-5.1h3.7v-20.1h-3.7V115H47c3.1,0,5.4,0.2,6.9,0.5c1.5,0.4,2.8,1.2,3.9,2.6s1.6,3,1.6,4.8
			c0,3-1.4,5-4.3,6.3c3.6,1.4,5.5,3.8,5.5,7.3c0,2-0.6,3.7-1.7,5.2c-1.1,1.4-2.6,2.4-4.4,2.9c-1.8,0.5-4.3,0.8-7.5,0.8H33.1z
			 M44.7,127H47c1.5,0,2.7-0.3,3.4-0.8c0.7-0.5,1.1-1.4,1.1-2.8c0-1.2-0.4-2.1-1.1-2.6c-0.7-0.5-1.9-0.7-3.7-0.7h-2V127z
			 M44.7,140.2H47c2,0,3.4-0.3,4.2-0.9s1.2-1.6,1.2-3.1c0-1.5-0.4-2.6-1.3-3.2s-2.2-0.9-4.1-0.9h-2.2V140.2z"/>
		<path class="st0" d="M95.5,140.2v5.1h-9.3l-6.9-13.3H76v8.2h3.8v5.1H63.9v-5.1H68v-20.1h-4.2V115h18.3c3.5,0,5.9,0.9,7.5,2.6
			c1.5,1.7,2.3,3.7,2.3,5.9c0,3.5-1.8,6-5.3,7.6l4.9,9.2H95.5z M76,127.2h2.7c3.3,0,5-1.2,5-3.6c0-1.2-0.4-2.1-1.1-2.6
			c-0.8-0.6-1.8-0.9-3.2-0.9H76V127.2z"/>
		<path class="st0" d="M126.7,140.2v5.1h-14.9v-5.1h3.9l-1.4-5.2h-7.9l-1.6,5.2h4.1v5.1H95.3v-5.1h3.8l5.9-20.1h-4V115h19.8v5.1
			h-4.1l6.4,20.1H126.7z M113,130.6l-2.5-9.2l-2.7,9.2H113z"/>
		<path class="st0" d="M137.3,145.6l-9-25.4h-3.6V115h15.5v5.1h-3.9l5.1,15.2l5.1-15.2h-3.9V115H156v5.1h-3.7l-8.7,25.4H137.3z"/>
		<path class="st0" d="M171.6,114.5c5.2,0,9.4,1.5,12.4,4.5c3,3,4.5,6.7,4.5,11.1c0,4.4-1.5,8.1-4.5,11.1c-3,3-7.1,4.5-12.4,4.5
			c-5.4,0-9.6-1.6-12.5-4.7s-4.4-6.8-4.4-11c0-4.3,1.5-8,4.5-11.1C162.2,116,166.4,114.5,171.6,114.5z M171.6,120.1
			c-2.3,0-4.3,0.9-5.9,2.6c-1.6,1.7-2.4,4.3-2.4,7.7c0,3,0.8,5.4,2.4,7.2c1.6,1.8,3.6,2.7,6,2.7c2.3,0,4.3-0.9,5.9-2.6
			c1.6-1.8,2.4-4.3,2.4-7.6c0-3-0.8-5.4-2.3-7.2C176.1,121,174.1,120.1,171.6,120.1z"/>
		<path class="st0" d="M195,130.4v-3.3c2.4-0.2,3.6-1.7,3.6-4.3v-0.4H195V115h7.3v6.9c0,2.1-0.2,3.8-0.7,4.9
			c-0.4,1.2-1.2,2.1-2.4,2.7C198.2,130.1,196.7,130.4,195,130.4z"/>
		<path class="st0" d="M208.7,145.4V135h5.2c0.1,1.9,0.6,3.3,1.5,4.2s2,1.3,3.2,1.3c0.9,0,1.7-0.3,2.4-1c0.6-0.6,1-1.4,1-2.3
			c0-0.9-0.3-1.7-0.9-2.3c-0.6-0.6-1.8-1.4-3.4-2.2c-3.5-1.7-5.9-3.2-7.2-4.5c-1.3-1.3-1.9-3-1.9-5.3c0-2.7,0.8-4.7,2.5-6.2
			c1.7-1.5,3.5-2.2,5.7-2.2c2.4,0,4.3,0.9,5.6,2.8V115h5.1v9.2h-5.1c-0.2-1.4-0.7-2.5-1.5-3.3c-0.8-0.8-1.8-1.2-2.9-1.2
			c-0.8,0-1.6,0.2-2.1,0.7c-0.6,0.5-0.9,1-0.9,1.8c0,0.6,0.2,1.2,0.7,1.8s1.9,1.4,4.2,2.4c2.2,1,4,1.9,5.2,2.7
			c1.2,0.8,2.1,1.9,2.8,3.1c0.7,1.3,1,2.8,1,4.5c0,3-0.9,5.3-2.6,6.8c-1.7,1.5-3.8,2.3-6.2,2.3c-2.7,0-4.7-1-6.2-3v2.6H208.7z"/>
	</g>
</g>
<g id="bot_stars">
	<polygon points="41,167.1 37,169.2 37.8,164.7 34.5,161.5 39,160.9 41,156.8 43,160.9 47.5,161.5 44.3,164.7 45,169.2 	"/>
	<polygon points="221,156.8 223,160.9 227.5,161.5 224.3,164.7 225,169.2 221,167.1 217,169.2 217.8,164.7 214.5,161.5 219,160.9 	
		"/>
</g>
<g id="symbol">
	<path d="M154.5,161.9l-3.3,3.3c-1.1,1.1-2.9,1.1-4,0l-0.7-0.7c-1.1-1.1-1.1-2.9,0-4l3.3-3.3c-0.9-0.3-1.8-0.5-2.8-0.5
		c-4.4,0-8,3.6-8,8c0,1.1,0.2,2.1,0.6,3l-22.2,22.2c-0.8-0.3-1.6-0.4-2.5-0.4c-4.4,0-8,3.6-8,8c0,1,0.2,1.9,0.5,2.8l3.3-3.3
		c1.1-1.1,2.9-1.1,4,0l0.7,0.7c1.1,1.1,1.1,2.9,0,4l-3.3,3.3c0.9,0.3,1.8,0.5,2.8,0.5c4.4,0,8-3.6,8-8c0-0.7-0.1-1.5-0.3-2.1
		l22.8-22.8c0.5,0.1,1.1,0.2,1.6,0.2c4.4,0,8-3.6,8-8C155,163.7,154.8,162.7,154.5,161.9z"/>
	<g>
		<path d="M137.2,189.2l1.7-1.7c1.5-1.5,3.7-1.6,5-0.4l10.4,10.4c1.3,1.3,1.1,3.5-0.4,5l-1.7,1.7c-1.5,1.5-3.7,1.6-5,0.4l-10.4-10.4
			C135.6,192.9,135.7,190.7,137.2,189.2z"/>
		<g>
			<path d="M140.1,182.3l-14-6.8c-0.6-0.3-0.8,0-0.5,0.5l6.8,14c0.3,0.6,0.7,1,1,1h7.2c0.3,0,0.5-0.2,0.5-0.5v-7.2
				C141.1,183,140.7,182.5,140.1,182.3z"/>
		</g>
		<g>
			<path d="M111.1,158.8l-3.2-1.5c-0.6-0.3-0.8,0-0.5,0.5l1.5,3.2c0.3,0.6,0.7,1,1,1h1.6c0.3,0,0.5-0.2,0.5-0.5v-1.6
				C112.1,159.5,111.7,159.1,111.1,158.8z"/>
		</g>
		<path d="M128.5,180.6l-19-19c-0.4-0.4-0.4-1,0-1.4l0.9-0.9c0.4-0.4,1-0.4,1.4,0l19,19c0.4,0.4,0.4,1,0,1.4l-0.9,0.9
			C129.5,181,128.9,181,128.5,180.6z"/>
	</g>
</g>
<g id="since2022-obj">
	<g>
		<path d="M35.5,96.6h2.9v3.4c0,0.3,0.2,0.5,0.6,0.5c0.4,0,0.6-0.2,0.6-0.5v-1.7c0-0.5-0.4-1.2-1.1-1.9c-1.4-1.3-2.2-2.2-2.6-2.7
			s-0.5-1-0.5-1.5v-1.7c0-1.9,1.2-2.9,3.7-2.9c2.2,0,3.3,0.9,3.3,2.6v2.5h-2.9v-2.7c0-0.3-0.2-0.4-0.5-0.4c-0.4,0-0.6,0.3-0.6,0.9
			l0.1,1c0,0.5,0.4,1.2,1.1,1.9c1.3,1.3,2.2,2.2,2.6,2.7s0.5,1.1,0.5,1.7v1.9c0,2-1.2,2.9-3.7,2.9c-2.4,0-3.6-0.9-3.6-2.7V96.6z"/>
		<path d="M46.6,102.4h-3.2V87.7h3.2V102.4z"/>
		<path d="M55.5,102.4h-3.3L50,94.6v7.8h-2.7V87.7h3.7l1.8,6.7v-6.7h2.7V102.4z"/>
		<path d="M63.2,92.9h-2.9V90c0-0.2-0.1-0.4-0.4-0.4c-0.3,0-0.5,0.1-0.5,0.4v10.2c0,0.2,0.2,0.4,0.5,0.4c0.3,0,0.4-0.1,0.4-0.4v-3.6
			h2.9v3.7c0,0.7-0.3,1.3-1,1.7c-0.7,0.4-1.5,0.6-2.3,0.6c-2.5,0-3.7-0.9-3.7-2.6v-9.5c0-1.9,1.2-2.9,3.7-2.9c2.2,0,3.3,0.9,3.3,2.6
			V92.9z"/>
		<path d="M70.2,102.4h-6.3V87.7h6.3v1.9h-3v4h2.7v1.8h-2.7v5.2h3.1V102.4z"/>
	</g>
	<g>
		<path d="M201.7,102.4h-7.4v-1.9l3.6-6.7c0.4-0.7,0.6-1.7,0.6-3c0-0.7-0.2-1-0.7-1c-0.5,0-0.7,0.2-0.7,0.6V93h-2.9v-2.6
			c0-1.9,1.2-2.8,3.7-2.8c1.5,0,2.5,0.3,3,1c0.5,0.7,0.7,1.8,0.7,3.4c0,0.6-0.1,1.1-0.3,1.5l-3.6,7h4V102.4z"/>
		<path d="M202.3,99.9v-9.5c0-1.9,1.3-2.9,3.8-2.9c2.5,0,3.7,0.9,3.7,2.8v9.5c0,0.8-0.4,1.5-1.1,2c-0.7,0.5-1.6,0.7-2.7,0.7
			c-1.1,0-2-0.2-2.7-0.7C202.7,101.4,202.3,100.8,202.3,99.9z M206.6,100.1v-10c0-0.3-0.2-0.4-0.5-0.4c-0.4,0-0.6,0.1-0.6,0.4v10
			c0,0.3,0.2,0.4,0.6,0.4C206.4,100.5,206.6,100.4,206.6,100.1z"/>
		<path d="M217.8,102.4h-7.4v-1.9l3.6-6.7c0.4-0.7,0.6-1.7,0.6-3c0-0.7-0.2-1-0.7-1c-0.5,0-0.7,0.2-0.7,0.6V93h-2.9v-2.6
			c0-1.9,1.2-2.8,3.7-2.8c1.5,0,2.5,0.3,3,1c0.5,0.7,0.7,1.8,0.7,3.4c0,0.6-0.1,1.1-0.3,1.5l-3.6,7h4V102.4z"/>
		<path d="M225.7,102.4h-7.4v-1.9l3.6-6.7c0.4-0.7,0.6-1.7,0.6-3c0-0.7-0.2-1-0.7-1c-0.5,0-0.7,0.2-0.7,0.6V93h-2.9v-2.6
			c0-1.9,1.2-2.8,3.7-2.8c1.5,0,2.5,0.3,3,1c0.5,0.7,0.7,1.8,0.7,3.4c0,0.6-0.1,1.1-0.3,1.5l-3.6,7h4V102.4z"/>
	</g>
</g>
<g id="bikeshop-obj">
	<path d="M63.6,177.8l4.8,5.7c1.7,2,2.6,3.8,2.6,5.4c0.1,1.6-0.6,3.1-2.1,4.3c-1.1,1-2.3,1.4-3.4,1.4c-1.1,0-2.2-0.6-3.3-1.6
		c1,1.5,1.4,2.9,1.2,4.2c-0.2,1.3-1,2.6-2.4,3.8c-1.7,1.5-3.4,2-5,1.6c-1.6-0.4-3.5-1.7-5.4-4.1l-4.8-5.7L63.6,177.8z M56.7,189.4
		l-5.3,4.5l2,2.3c0.9,1.1,1.8,1.7,2.6,1.9c0.8,0.1,1.6-0.2,2.6-1c1-0.8,1.5-1.6,1.5-2.5c0-0.8-0.4-1.8-1.3-2.9L56.7,189.4z
		 M63.7,183.6l-4.1,3.5l2,2.3c0.8,0.9,1.4,1.4,2.1,1.5c0.6,0.1,1.3-0.1,2.1-0.8c0.7-0.6,1.1-1.3,1.1-1.9c0-0.7-0.4-1.4-1.1-2.3
		L63.7,183.6z"/>
	<path d="M73.7,195.2l2.4-3.2l11.1,8.4l-2.4,3.2l-3.7-2.8L71.9,213l3.7,2.8l-2.4,3.2l-11.1-8.4l2.4-3.2l3.7,2.8l9.2-12.1L73.7,195.2
		z"/>
	<path d="M90.2,202.3l4.2,1.9l-3.8,8.4l10.4-5.4l4.8,2.1l-10.5,5.3l1.1,16l-4.7-2.1L91,216.7l-2.9,1.5l-3.3,7.2l-4.2-1.9L90.2,202.3
		z"/>
	<path d="M117.4,235.4l-14.2-2.9l4.6-22.9l14.2,2.9l-0.8,4l-9.7-2l-1,4.9l8.8,1.8l-0.8,4l-8.8-1.8l-1.2,6l9.7,2L117.4,235.4z"/>
	<path d="M152.3,223.4c-2.5-0.3-4.2-0.8-5.3-1.6c-1-0.7-1.8-1.9-2.2-3.5c-0.5-2-0.3-3.8,0.8-5.3s2.7-2.5,5-3.1
		c1-0.3,2.1-0.4,3.2-0.4c1.1,0,2.2,0.1,3.4,0.3l1.1,4.4c-1.1-0.4-2.2-0.7-3.3-0.8c-1.1-0.1-2.1,0-3.1,0.2c-1.1,0.3-1.9,0.7-2.3,1.3
		c-0.5,0.6-0.6,1.3-0.4,2.1c0.2,0.6,0.5,1.1,1,1.4c0.5,0.3,1.5,0.5,3,0.7l2.1,0.2c2,0.2,3.5,0.8,4.7,1.6c1.1,0.9,1.9,2.2,2.3,3.8
		c0.6,2.3,0.3,4.2-0.7,5.6c-1.1,1.5-3,2.5-5.7,3.2c-1.1,0.3-2.3,0.4-3.5,0.4c-1.2,0-2.4-0.1-3.6-0.4l-1.2-4.6c1.4,0.6,2.7,0.9,3.9,1
		s2.4,0.1,3.5-0.2c1.1-0.3,1.9-0.7,2.4-1.4c0.5-0.7,0.6-1.4,0.4-2.3c-0.2-0.7-0.5-1.2-1.1-1.6s-1.2-0.7-2.1-0.8L152.3,223.4z"/>
	<path d="M161.1,207.3l4.1-2.1l4,7.9l5.1-2.6l-4-7.9l4.1-2.1l10.5,20.8l-4.1,2.1l-4.7-9.3l-5.1,2.6l4.7,9.3l-4.1,2.1L161.1,207.3z"
		/>
	<path d="M184.1,208.1c-2.5-3.1-3.9-5.8-4.2-8.3c-0.2-2.5,0.7-4.5,2.8-6.3c2.1-1.7,4.3-2.2,6.7-1.6c2.4,0.7,4.8,2.6,7.4,5.6
		c2.5,3.1,3.9,5.8,4.2,8.3c0.2,2.5-0.7,4.5-2.8,6.3c-2.1,1.7-4.3,2.2-6.7,1.5C189.1,213.1,186.7,211.2,184.1,208.1z M185.4,196.8
		c-0.9,0.8-1.2,1.8-0.8,3.1c0.4,1.3,1.5,3,3.3,5.2c1.8,2.2,3.3,3.5,4.5,4.2c1.2,0.6,2.3,0.6,3.2-0.2c0.9-0.8,1.2-1.8,0.8-3.1
		c-0.4-1.3-1.5-3-3.2-5.2c-1.8-2.2-3.3-3.5-4.5-4.2C187.3,196,186.3,196,185.4,196.8z"/>
	<path d="M191.3,186.5l3.9-5c2-2.5,3.8-4,5.6-4.4s3.7,0.2,5.7,1.7c2,1.6,3.1,3.3,3.1,5.1s-0.9,4-2.9,6.5l-1.1,1.4l6.9,5.3l-2.8,3.6
		L191.3,186.5z M197.2,185.2l5.4,4.2l1.2-1.5c0.9-1.2,1.4-2.2,1.3-3c0-0.8-0.5-1.6-1.5-2.3c-1-0.8-1.9-1.1-2.7-0.9
		c-0.8,0.2-1.6,0.9-2.5,2L197.2,185.2z"/>
</g>
<g id="bicikli">
	<g>
		<ellipse class="st1" cx="104" cy="89" rx="16" ry="16"/>
		<circle class="st1" cx="160" cy="89" r="16"/>
		<circle cx="160" cy="89" r="4"/>
		<circle cx="104" cy="89" r="4"/>
		<path class="st1" d="M141.5,89c0-10.2,8.3-18.5,18.5-18.5c0,0,0.1,0,0.1,0"/>
		<path class="st1" d="M85.6,86.9c1.1-9.2,8.9-16.4,18.4-16.4c9.4,0,17.2,7,18.3,16.1"/>
		<circle class="st2" cx="129" cy="91" r="4.5"/>
		<line class="st1" x1="104" y1="89" x2="118.5" y2="64.1"/>
		<line class="st1" x1="116.7" y1="57.7" x2="129" y2="91"/>
		<path class="st3" d="M160,89l-14.9-29.3c-0.1-0.3-0.2-0.7,0-1.1c0.3-0.6,0.9-0.7,1.5-1.3c0.6-0.5,0.7-1.2,0.9-2.3
			c0.2-1.2,0.5-2.7-0.3-3.8c-0.2-0.2-0.7-0.9-2.3-1.2c-3.9-0.7-9.5,1.7-10.9,2.4"/>
		<line class="st4" x1="129" y1="91" x2="129" y2="98"/>
		<line class="st4" x1="126" y1="99" x2="132" y2="99"/>
		<line class="st4" x1="104.3" y1="86.1" x2="129.8" y2="87.6"/>
		<line class="st4" x1="103.8" y1="92" x2="129.5" y2="94.5"/>
		<path d="M110.2,58.9c0,0.2,0.2,1,1,1.6c1.5,1.2,4.3,1.3,5.7,0.6c0.7-0.4,0.6-0.7,1.5-1.1c1-0.5,2.1-0.6,3-0.6
			c2-0.1,2.8,0.3,3.6-0.2c0.3-0.2,0.5-0.6,0.5-0.9c0-0.5-0.6-0.9-0.9-1.1c-1.8-1.1-10.6-3.3-13.4-0.6
			C110.8,56.9,110.1,57.8,110.2,58.9z"/>
		<path class="st3" d="M129.6,89.3c1.3-10.2,10.6-18.9,23.5-23"/>
		<path class="st1" d="M125.9,82.6c0,0,0-0.1,0-0.1c0-0.1,0-0.1,0.1-0.2c2.5-8.4,10.5-15.4,21.2-19.3"/>
	</g>
	<g>
		<ellipse class="st1" cx="104" cy="89" rx="16" ry="16"/>
		<circle class="st1" cx="160" cy="89" r="16"/>
		<circle class="st1" cx="160" cy="89" r="4"/>
		<circle class="st1" cx="104" cy="89" r="4"/>
		<path class="st1" d="M141.5,89c0-10.2,8.3-18.5,18.5-18.5c0,0,0.1,0,0.1,0"/>
		<path class="st1" d="M85.6,86.9c1.1-9.2,8.9-16.4,18.4-16.4c9.4,0,17.2,7,18.3,16.1"/>
		<circle class="st1" cx="129" cy="91" r="4.5"/>
		<line class="st1" x1="104" y1="89" x2="118.5" y2="64.1"/>
		<line class="st1" x1="116.7" y1="57.7" x2="129" y2="91"/>
		<path class="st1" d="M160,89l-14.9-29.3c-0.1-0.3-0.2-0.7,0-1.1c0.3-0.6,0.9-0.7,1.5-1.3c0.6-0.5,0.7-1.2,0.9-2.3
			c0.2-1.2,0.5-2.7-0.3-3.8c-0.2-0.2-0.7-0.9-2.3-1.2c-3.9-0.7-9.5,1.7-10.9,2.4"/>
		<line class="st1" x1="129" y1="91" x2="129" y2="98"/>
		<line class="st1" x1="126" y1="99" x2="132" y2="99"/>
		<line class="st1" x1="104.3" y1="86.1" x2="129.8" y2="87.6"/>
		<line class="st1" x1="103.8" y1="92" x2="129.5" y2="94.5"/>
		<path class="st1" d="M110.2,58.9c0,0.2,0.2,1,1,1.6c1.5,1.2,4.3,1.3,5.7,0.6c0.7-0.4,0.6-0.7,1.5-1.1c1-0.5,2.1-0.6,3-0.6
			c2-0.1,2.8,0.3,3.6-0.2c0.3-0.2,0.5-0.6,0.5-0.9c0-0.5-0.6-0.9-0.9-1.1c-1.8-1.1-10.6-3.3-13.4-0.6
			C110.8,56.9,110.1,57.8,110.2,58.9z"/>
		<path class="st1" d="M129.6,89.3c1.3-10.2,10.6-18.9,23.5-23"/>
		<path class="st1" d="M125.9,82.6c0,0,0-0.1,0-0.1c0-0.1,0-0.1,0.1-0.2c2.5-8.4,10.5-15.4,21.2-19.3"/>
	</g>
</g>
</svg>
